# xmcd
#
# Track frame offsets:
#	150
#	18247
#	34536
#	46630
#	64551
#	81758
#	101776
#	114615
#	130691
#	151528
#	170032
#	185779
#	199540
#	221418
#	237006
#	254116
#	269796
#	289785
#	304538
#	322653
#
# Disc length: 4550 seconds
#
# Revision: 1
# Processed by: cddbd v1.5.2PL0 Copyright (c) Steve Scherf et al.
# Submitted via: audiograbber 1.83.01
#
DISCID=0d11c414
DTITLE=Various Artist - Double Cream 7, The Women of Country, Disc 1
DYEAR=2015
DGENRE=Country
TTITLE0=Carrie Underwood - Blown Away
TTITLE1=Martina McBride - A Broken Wing
TTITLE2=Linda Ronstadt - Different Drum
TTITLE3=Miranda Lambert - The House That Built Me
TTITLE4=Melinda Schneider - Real People
TTITLE5=Wynonna - She Is His Only Need
TTITLE6=Patty Loveless - I Try To Think About Elvis
TTITLE7=Shania Twain - You're Still The One
TTITLE8=k.d. lang - Constant Craving
TTITLE9=Sara Evans - Three Chords and the Truth
TTITLE10=Kacey Musgraves - Merry Go 'Round
TTITLE11=Sugarland - It Happens
TTITLE12=Beccy Cole - Blackwood Hill
TTITLE13=Lorrie Morgan - Good as I was to You
TTITLE14=Kellie Pickler - Best Days of Your Life
TTITLE15=Jasmine Rae - If I Want To
TTITLE16=Shawn Colvin - Sunny Came Home
TTITLE17=Pistol Annies - Hell on Wheels
TTITLE18=Jennifer Nettles - That Girl
TTITLE19=Tanya Tucker - Two Sparrows in a Hurricane
EXTD=
EXTT0=
EXTT1=
EXTT2=
EXTT3=
EXTT4=
EXTT5=
EXTT6=
EXTT7=
EXTT8=
EXTT9=
EXTT10=
EXTT11=
EXTT12=
EXTT13=
EXTT14=
EXTT15=
EXTT16=
EXTT17=
EXTT18=
EXTT19=
PLAYORDER=
